<svg width="180" height="40" viewBox="0 0 180 40" fill="none" xmlns="http://www.w3.org/2000/svg">
<path fill-rule="evenodd" clip-rule="evenodd" d="M13.5354 18.1481C12.449 18.1481 12.2223 18.3614 12.2223 19.3827V21.2346C12.2223 22.256 12.449 22.4691 13.5354 22.4691H16.1617V29.8766C16.1617 30.8979 16.3884 31.1111 17.4748 31.1111H20.1011C21.1875 31.1111 21.4142 30.8979 21.4142 29.8766V22.4691H24.3631C25.1871 22.4691 25.3994 22.3186 25.6257 21.5738L26.1885 19.7219C26.5762 18.446 26.3373 18.1481 24.9258 18.1481H21.4142V15.0618C21.4142 14.3799 22.0021 13.8272 22.7273 13.8272H26.4647C27.5511 13.8272 27.7778 13.614 27.7778 12.5926V10.1235C27.7778 9.10208 27.5511 8.88892 26.4647 8.88892H22.7273C19.1012 8.88892 16.1617 11.6526 16.1617 15.0618V18.1481H13.5354Z" stroke="white" stroke-width="1.66667" stroke-linejoin="round"/>
<path d="M56.1111 19.9999C56.1111 15.024 56.1111 12.536 57.6569 10.9902C59.2027 9.44434 61.6907 9.44434 66.6666 9.44434C71.6425 9.44434 74.1305 9.44434 75.6764 10.9902C77.2222 12.536 77.2222 15.024 77.2222 19.9999C77.2222 24.9758 77.2222 27.4638 75.6764 29.0097C74.1305 30.5554 71.6425 30.5554 66.6666 30.5554C61.6907 30.5554 59.2027 30.5554 57.6569 29.0097C56.1111 27.4638 56.1111 24.9758 56.1111 19.9999Z" stroke="white" stroke-width="1.66667" stroke-linejoin="round"/>
<path d="M71.6666 20C71.6666 22.7614 69.4281 25 66.6666 25C63.9052 25 61.6666 22.7614 61.6666 20C61.6666 17.2386 63.9052 15 66.6666 15C69.4281 15 71.6666 17.2386 71.6666 20Z" stroke="white" stroke-width="1.66667"/>
<path d="M72.7865 13.8889H72.7765" stroke="white" stroke-width="2.22222" stroke-linecap="round" stroke-linejoin="round"/>
<path d="M103.333 30L111.72 21.6129M111.72 21.6129L103.333 10H108.889L114.946 18.3871M111.72 21.6129L117.778 30H123.333L114.946 18.3871M123.333 10L114.946 18.3871" stroke="white" stroke-width="1.66667" stroke-linecap="round" stroke-linejoin="round"/>
<path d="M151.667 17.2223H151.111C150.064 17.2223 149.54 17.2223 149.214 17.5477C148.889 17.8732 148.889 18.397 148.889 19.4445V28.889C148.889 29.9365 148.889 30.4603 149.214 30.7857C149.54 31.1112 150.064 31.1112 151.111 31.1112H151.667C152.714 31.1112 153.238 31.1112 153.563 30.7857C153.889 30.4603 153.889 29.9365 153.889 28.889V19.4445C153.889 18.397 153.889 17.8732 153.563 17.5477C153.238 17.2223 152.714 17.2223 151.667 17.2223Z" stroke="white" stroke-width="1.66667"/>
<path d="M153.889 11.3889C153.889 12.7696 152.77 13.8889 151.389 13.8889C150.008 13.8889 148.889 12.7696 148.889 11.3889C148.889 10.0082 150.008 8.88892 151.389 8.88892C152.77 8.88892 153.889 10.0082 153.889 11.3889Z" stroke="white" stroke-width="1.66667"/>
<path d="M160.362 17.2223H159.445C158.397 17.2223 157.873 17.2223 157.548 17.5477C157.222 17.8732 157.222 18.397 157.222 19.4445V28.889C157.222 29.9365 157.222 30.4603 157.548 30.7857C157.873 31.1112 158.397 31.1112 159.445 31.1112H160C161.048 31.1112 161.571 31.1112 161.897 30.7857C162.222 30.4603 162.222 29.9365 162.222 28.889L162.222 25.0002C162.222 23.1593 162.809 21.6668 164.542 21.6668C165.409 21.6668 166.111 22.4131 166.111 23.3335V28.3335C166.111 29.3811 166.111 29.9048 166.437 30.2303C166.762 30.5557 167.286 30.5557 168.333 30.5557H168.888C169.935 30.5557 170.459 30.5557 170.784 30.2304C171.109 29.9051 171.11 29.3814 171.11 28.3341L171.111 22.2225C171.111 19.4612 168.485 17.2226 165.885 17.2226C164.406 17.2226 163.085 17.948 162.222 19.0823C162.222 18.3822 162.222 18.0322 162.07 17.7723C161.974 17.6077 161.837 17.4707 161.672 17.3744C161.412 17.2223 161.062 17.2223 160.362 17.2223Z" stroke="white" stroke-width="1.66667" stroke-linejoin="round"/>
</svg>
