<svg width="100" height="100" viewBox="0 0 100 100" fill="none" xmlns="http://www.w3.org/2000/svg">
<path fill-rule="evenodd" clip-rule="evenodd" d="M50 16.6667C50 17.7717 50.439 18.8315 51.2204 19.6129C52.0018 20.3943 53.0616 20.8333 54.1667 20.8333H73.275L51.2208 42.8875C50.6383 43.4702 50.2416 44.2126 50.0809 45.0207C49.9202 45.8288 50.0027 46.6665 50.318 47.4277C50.6333 48.189 51.1672 48.8397 51.8523 49.2975C52.5373 49.7554 53.3427 49.9998 54.1667 50H83.3333C84.4384 50 85.4982 49.561 86.2796 48.7796C87.061 47.9982 87.5 46.9384 87.5 45.8333C87.5 44.7283 87.061 43.6685 86.2796 42.8871C85.4982 42.1057 84.4384 41.6667 83.3333 41.6667H64.225L86.2792 19.6125C86.8617 19.0298 87.2584 18.2874 87.4191 17.4793C87.5798 16.6712 87.4973 15.8335 87.182 15.0723C86.8667 14.311 86.3328 13.6603 85.6477 13.2025C84.9627 12.7446 84.1573 12.5002 83.3333 12.5H54.1667C53.0616 12.5 52.0018 12.939 51.2204 13.7204C50.439 14.5018 50 15.5616 50 16.6667ZM16.6667 41.6667C15.5616 41.6667 14.5018 41.2277 13.7204 40.4463C12.939 39.6649 12.5 38.6051 12.5 37.5C12.5 36.3949 12.939 35.3351 13.7204 34.5537C14.5018 33.7723 15.5616 33.3333 16.6667 33.3333H37.5C38.324 33.3335 39.1294 33.578 39.8144 34.0358C40.4994 34.4937 41.0334 35.1444 41.3487 35.9056C41.6639 36.6669 41.7465 37.5045 41.5858 38.3126C41.4251 39.1208 41.0284 39.8631 40.4458 40.4458L26.725 54.1667H37.5C38.6051 54.1667 39.6649 54.6057 40.4463 55.3871C41.2277 56.1685 41.6667 57.2283 41.6667 58.3333C41.6667 59.4384 41.2277 60.4982 40.4463 61.2796C39.6649 62.061 38.6051 62.5 37.5 62.5H16.6667C15.8427 62.4998 15.0373 62.2554 14.3523 61.7975C13.6672 61.3397 13.1333 60.689 12.818 59.9277C12.5027 59.1665 12.4202 58.3288 12.5809 57.5207C12.7416 56.7126 13.1383 55.9702 13.7208 55.3875L27.4417 41.6667H16.6667ZM50 70.8333C48.8949 70.8333 47.8351 70.3943 47.0537 69.6129C46.2723 68.8315 45.8333 67.7717 45.8333 66.6667C45.8333 65.5616 46.2723 64.5018 47.0537 63.7204C47.8351 62.939 48.8949 62.5 50 62.5H66.6667C67.4906 62.5002 68.296 62.7446 68.9811 63.2025C69.6661 63.6603 70.2 64.311 70.5153 65.0723C70.8306 65.8335 70.9131 66.6712 70.7524 67.4793C70.5917 68.2874 70.195 69.0298 69.6125 69.6125L60.0583 79.1667H66.6667C67.7717 79.1667 68.8315 79.6056 69.6129 80.387C70.3943 81.1684 70.8333 82.2283 70.8333 83.3333C70.8333 84.4384 70.3943 85.4982 69.6129 86.2796C68.8315 87.061 67.7717 87.5 66.6667 87.5H50C49.176 87.4998 48.3706 87.2554 47.6856 86.7975C47.0005 86.3397 46.4666 85.689 46.1513 84.9277C45.836 84.1665 45.7535 83.3288 45.9142 82.5207C46.0749 81.7126 46.4716 80.9702 47.0542 80.3875L56.6083 70.8333H50Z" fill="url(#paint0_linear_267_69)"/>
<defs>
<linearGradient id="paint0_linear_267_69" x1="12.5" y1="50" x2="87.5" y2="50" gradientUnits="userSpaceOnUse">
<stop stop-color="#38B6FF"/>
<stop offset="1" stop-color="#0088D7"/>
</linearGradient>
</defs>
</svg>
