<svg width="89" height="78" viewBox="0 0 89 78" fill="none" xmlns="http://www.w3.org/2000/svg">
<g clip-path="url(#clip0_267_37)">
<path opacity="0.2" d="M88.5 43C88.5 47.5963 87.5947 52.1475 85.8358 56.3939C84.0769 60.6403 81.4988 64.4987 78.2487 67.7487C74.9987 70.9988 71.1403 73.5769 66.8939 75.3358C62.6475 77.0947 58.0963 78 53.5 78C48.9037 78 44.3525 77.0947 40.1061 75.3358C35.8597 73.5769 32.0013 70.9988 28.7513 67.7487C25.5012 64.4987 22.9231 60.6403 21.1642 56.3939C19.4053 52.1475 18.5 47.5963 18.5 43C18.5 33.7174 22.1875 24.815 28.7513 18.2513C35.315 11.6875 44.2174 8 53.5 8C62.7826 8 71.685 11.6875 78.2487 18.2513C84.8125 24.815 88.5 33.7174 88.5 43Z" fill="url(#paint0_linear_267_37)"/>
<path fill-rule="evenodd" clip-rule="evenodd" d="M43.5 3C43.5 2.33696 43.7634 1.70107 44.2322 1.23223C44.7011 0.763393 45.337 0.5 46 0.5C53.4168 0.5 60.667 2.69934 66.8339 6.81989C73.0007 10.9404 77.8072 16.7971 80.6455 23.6494C83.4838 30.5016 84.2264 38.0416 82.7794 45.3159C81.3325 52.5902 77.761 59.272 72.5165 64.5165C67.272 69.761 60.5902 73.3325 53.3159 74.7794C46.0416 76.2264 38.5016 75.4838 31.6494 72.6455C24.7971 69.8072 18.9404 65.0007 14.8199 58.8339C10.6993 52.667 8.5 45.4168 8.5 38C8.5 37.337 8.76339 36.7011 9.23223 36.2322C9.70107 35.7634 10.337 35.5 11 35.5C11.663 35.5 12.2989 35.7634 12.7678 36.2322C13.2366 36.7011 13.5 37.337 13.5 38C13.5 44.4279 15.4061 50.7114 18.9772 56.056C22.5484 61.4006 27.6242 65.5662 33.5628 68.0261C39.5014 70.4859 46.036 71.1295 52.3404 69.8755C58.6448 68.6215 64.4358 65.5262 68.981 60.981C73.5262 56.4358 76.6215 50.6448 77.8755 44.3404C79.1295 38.036 78.4859 31.5014 76.0261 25.5628C73.5662 19.6242 69.4006 14.5484 64.056 10.9772C58.7114 7.40609 52.4279 5.5 46 5.5C45.337 5.5 44.7011 5.23661 44.2322 4.76777C43.7634 4.29893 43.5 3.66304 43.5 3Z" fill="url(#paint1_linear_267_37)"/>
<path d="M33.5 4.25C33.5 5.24456 33.1049 6.19839 32.4017 6.90165C31.6984 7.60491 30.7446 8 29.75 8C28.7554 8 27.8016 7.60491 27.0983 6.90165C26.3951 6.19839 26 5.24456 26 4.25C26 3.25544 26.3951 2.30161 27.0983 1.59835C27.8016 0.895088 28.7554 0.5 29.75 0.5C30.7446 0.5 31.6984 0.895088 32.4017 1.59835C33.1049 2.30161 33.5 3.25544 33.5 4.25ZM21 11.75C21 12.7446 20.6049 13.6984 19.9017 14.4017C19.1984 15.1049 18.2446 15.5 17.25 15.5C16.2554 15.5 15.3016 15.1049 14.5983 14.4017C13.8951 13.6984 13.5 12.7446 13.5 11.75C13.5 10.7554 13.8951 9.80161 14.5983 9.09835C15.3016 8.39509 16.2554 8 17.25 8C18.2446 8 19.1984 8.39509 19.9017 9.09835C20.6049 9.80161 21 10.7554 21 11.75ZM13.5 24.25C13.5 25.2446 13.1049 26.1984 12.4017 26.9017C11.6984 27.6049 10.7446 28 9.75 28C8.75544 28 7.80161 27.6049 7.09835 26.9017C6.39509 26.1984 6 25.2446 6 24.25C6 23.2554 6.39509 22.3016 7.09835 21.5983C7.80161 20.8951 8.75544 20.5 9.75 20.5C10.7446 20.5 11.6984 20.8951 12.4017 21.5983C13.1049 22.3016 13.5 23.2554 13.5 24.25Z" fill="url(#paint2_linear_267_37)"/>
<path fill-rule="evenodd" clip-rule="evenodd" d="M23.2349 44.12C23.5319 43.5272 23.5813 42.8408 23.3722 42.2116C23.1631 41.5824 22.7126 41.0621 22.1199 40.765L12.1199 35.765C11.5279 35.474 10.8448 35.4289 10.2196 35.6393C9.59437 35.8498 9.0777 36.2989 8.78215 36.8886C8.4866 37.4784 8.43614 38.1611 8.64176 38.7879C8.84739 39.4147 9.29243 39.9349 9.8799 40.235L19.8799 45.235C20.4727 45.532 21.1591 45.5814 21.7883 45.3723C22.4175 45.1632 22.9378 44.7127 23.2349 44.12Z" fill="url(#paint3_linear_267_37)"/>
<path fill-rule="evenodd" clip-rule="evenodd" d="M12.7699 36.23C13.0027 36.4622 13.1875 36.7381 13.3135 37.0418C13.4395 37.3456 13.5044 37.6712 13.5044 38C13.5044 38.3288 13.4395 38.6544 13.3135 38.9582C13.1875 39.2619 13.0027 39.5378 12.7699 39.77L5.26993 47.27C4.80116 47.7394 4.1651 48.0034 3.50169 48.0039C2.83828 48.0044 2.20186 47.7413 1.73243 47.2725C1.26299 46.8037 0.999005 46.1677 0.998536 45.5043C0.998067 44.8409 1.26116 44.2044 1.72993 43.735L9.22993 36.235C9.46215 36.0022 9.73803 35.8175 10.0418 35.6914C10.3455 35.5654 10.6711 35.5005 10.9999 35.5005C11.3288 35.5005 11.6544 35.5654 11.9581 35.6914C12.2618 35.8175 12.5377 36.0022 12.7699 36.235V36.23ZM45.9999 20.5C46.663 20.5 47.2989 20.7634 47.7677 21.2322C48.2365 21.7011 48.4999 22.337 48.4999 23V38C48.4999 38.663 48.2365 39.2989 47.7677 39.7678C47.2989 40.2366 46.663 40.5 45.9999 40.5C45.3369 40.5 44.701 40.2366 44.2322 39.7678C43.7633 39.2989 43.4999 38.663 43.4999 38V23C43.4999 22.337 43.7633 21.7011 44.2322 21.2322C44.701 20.7634 45.3369 20.5 45.9999 20.5Z" fill="url(#paint4_linear_267_37)"/>
<path fill-rule="evenodd" clip-rule="evenodd" d="M63.5 38C63.5 38.663 63.2366 39.2989 62.7678 39.7678C62.2989 40.2366 61.663 40.5 61 40.5H46C45.337 40.5 44.7011 40.2366 44.2322 39.7678C43.7634 39.2989 43.5 38.663 43.5 38C43.5 37.337 43.7634 36.7011 44.2322 36.2322C44.7011 35.7634 45.337 35.5 46 35.5H61C61.663 35.5 62.2989 35.7634 62.7678 36.2322C63.2366 36.7011 63.5 37.337 63.5 38Z" fill="url(#paint5_linear_267_37)"/>
</g>
<defs>
<linearGradient id="paint0_linear_267_37" x1="18.5" y1="43" x2="88.5" y2="43" gradientUnits="userSpaceOnUse">
<stop stop-color="#38B6FF"/>
<stop offset="1" stop-color="#0088D7"/>
</linearGradient>
<linearGradient id="paint1_linear_267_37" x1="8.5" y1="38" x2="83.5" y2="38" gradientUnits="userSpaceOnUse">
<stop stop-color="#38B6FF"/>
<stop offset="1" stop-color="#0088D7"/>
</linearGradient>
<linearGradient id="paint2_linear_267_37" x1="6" y1="14.25" x2="33.5" y2="14.25" gradientUnits="userSpaceOnUse">
<stop stop-color="#38B6FF"/>
<stop offset="1" stop-color="#0088D7"/>
</linearGradient>
<linearGradient id="paint3_linear_267_37" x1="8.51721" y1="40.5043" x2="23.4998" y2="40.5043" gradientUnits="userSpaceOnUse">
<stop stop-color="#38B6FF"/>
<stop offset="1" stop-color="#0088D7"/>
</linearGradient>
<linearGradient id="paint4_linear_267_37" x1="0.998535" y1="34.2519" x2="48.4999" y2="34.2519" gradientUnits="userSpaceOnUse">
<stop stop-color="#38B6FF"/>
<stop offset="1" stop-color="#0088D7"/>
</linearGradient>
<linearGradient id="paint5_linear_267_37" x1="43.5" y1="38" x2="63.5" y2="38" gradientUnits="userSpaceOnUse">
<stop stop-color="#38B6FF"/>
<stop offset="1" stop-color="#0088D7"/>
</linearGradient>
<clipPath id="clip0_267_37">
<rect width="88" height="78" fill="white" transform="translate(0.5)"/>
</clipPath>
</defs>
</svg>
