<svg width="101" height="100" viewBox="0 0 101 100" fill="none" xmlns="http://www.w3.org/2000/svg">
<path fill-rule="evenodd" clip-rule="evenodd" d="M68.8083 8.42084L69.0833 8.49584C73.6666 9.725 77.2958 10.6958 80.1499 11.7292C83.0708 12.7833 85.4541 13.9875 87.4166 15.825C90.2729 18.5022 92.271 21.9663 93.1583 25.7792C93.7708 28.3958 93.625 31.0625 93.075 34.1167C92.5458 37.1083 91.575 40.7375 90.3458 45.3167L88.1125 53.6458C86.8875 58.225 85.9125 61.8542 84.8833 64.7083C83.825 67.6292 82.6208 70.0125 80.7833 71.975C78.1935 74.7403 74.8645 76.7041 71.1916 77.6333C70.1155 80.1004 68.5474 82.3221 66.5833 84.1625C64.6208 86 62.2374 87.2042 59.3166 88.2625C56.4624 89.2958 52.8333 90.2667 48.2541 91.4958L47.9749 91.5708C43.3916 92.7958 39.7666 93.7667 36.7749 94.3042C33.7208 94.85 31.0541 94.9958 28.4333 94.3875C24.6209 93.4971 21.1582 91.4961 18.4833 88.6375C16.6499 86.6792 15.4416 84.2958 14.3833 81.375C13.3541 78.5208 12.3833 74.8917 11.1541 70.3083L8.92078 61.9833C7.69578 57.4 6.72078 53.775 6.18744 50.7833C5.64161 47.7292 5.49578 45.0625 6.10411 42.4417C6.99449 38.6293 8.99553 35.1666 11.8541 32.4917C13.8124 30.6583 16.1958 29.45 19.1166 28.3917C21.9708 27.3625 25.5999 26.3917 30.1791 25.1625L30.3208 25.1208L33.4499 24.2875C35.0833 18.4583 36.5166 14.3375 39.3166 11.35C41.9921 8.49295 45.4547 6.4934 49.2666 5.60417C51.8874 4.99584 54.5499 5.14167 57.6083 5.6875C60.5958 6.22084 64.2249 7.19584 68.8083 8.42084ZM31.5624 31.2625C27.0083 32.4833 23.7458 33.3667 21.2374 34.2708C18.6958 35.1875 17.2083 36.0375 16.1249 37.0542C14.1693 38.8846 12.8005 41.254 12.1916 43.8625C11.8583 45.3125 11.8624 47.0292 12.3416 49.6833C12.8208 52.3792 13.7249 55.7542 14.9958 60.5042L17.1541 68.5542C18.4249 73.3042 19.3333 76.6792 20.2624 79.25C21.1791 81.7917 22.0291 83.2833 23.0458 84.3667C24.8763 86.3223 27.2456 87.6911 29.8541 88.3C31.2999 88.6333 33.0208 88.625 35.6749 88.15C38.3708 87.6708 41.7458 86.7667 46.4958 85.4958C51.2458 84.2208 54.6208 83.3167 57.1958 82.3833C59.7333 81.4667 61.2249 80.6167 62.3083 79.6042C62.8833 79.0625 63.4041 78.4792 63.8749 77.8583C63.102 77.7479 62.3322 77.6159 61.5666 77.4625C58.7666 76.9042 55.3999 76.0042 51.2541 74.8917L51.0124 74.8292C46.4333 73.6 42.8041 72.6292 39.9499 71.5958C37.0291 70.5417 34.6458 69.3375 32.6833 67.5C29.8255 64.8234 27.8259 61.3592 26.9374 57.5458C26.3291 54.9292 26.4749 52.2625 27.0208 49.2042C27.5541 46.2167 28.5291 42.5875 29.7541 38.0083L31.5624 31.2625ZM56.5083 11.8417C53.8499 11.3625 52.1333 11.3542 50.6874 11.6917C48.0789 12.3006 45.7096 13.6694 43.8791 15.625C42.0624 17.5625 40.9416 20.5625 38.9999 27.6792C38.6833 28.8375 38.3499 30.0833 37.9874 31.4375L35.8291 39.4875C34.5583 44.2375 33.6541 47.6125 33.1749 50.3083C32.6958 52.9625 32.6874 54.6833 33.0249 56.1292C33.6338 58.7377 35.0027 61.107 36.9583 62.9375C38.0416 63.9542 39.5333 64.8 42.0708 65.7208C44.6458 66.65 48.0208 67.5542 52.7708 68.8292C57.0416 69.975 60.2083 70.8208 62.7833 71.3292C65.3458 71.8417 67.0874 71.9667 68.5124 71.7917C68.8249 71.75 69.1208 71.7 69.4124 71.6333C72.021 71.0244 74.3903 69.6556 76.2208 67.7C77.2374 66.6167 78.0874 65.125 79.0041 62.5875C79.9333 60.0125 80.8374 56.6375 82.1124 51.8875L84.2708 43.8375C85.5416 39.0875 86.4458 35.7125 86.925 33.0167C87.4 30.3625 87.4125 28.6417 87.075 27.1958C86.4661 24.5873 85.0972 22.218 83.1416 20.3875C82.0583 19.3708 80.5666 18.525 78.0291 17.6042C75.45 16.675 72.0791 15.7708 67.3291 14.4958C62.5791 13.225 59.2041 12.3208 56.5083 11.8417ZM46.5499 40.8583C46.6563 40.4619 46.8397 40.0902 47.0897 39.7647C47.3397 39.4391 47.6514 39.166 48.007 38.9609C48.3626 38.7558 48.7551 38.6228 49.1621 38.5695C49.5692 38.5161 49.9827 38.5435 50.3791 38.65L70.5041 44.0417C71.2825 44.2757 71.939 44.8038 72.3345 45.5139C72.7299 46.2239 72.8332 47.0602 72.6223 47.8451C72.4114 48.63 71.903 49.3019 71.205 49.7182C70.5069 50.1346 69.6741 50.2625 68.8833 50.075L48.7583 44.6833C47.9585 44.4685 47.2767 43.945 46.8626 43.2278C46.4486 42.5106 46.3361 41.6584 46.5499 40.8583ZM43.3124 52.9333C43.4188 52.5364 43.6023 52.1644 43.8526 51.8385C44.1029 51.5126 44.415 51.2392 44.7711 51.0341C45.1271 50.829 45.5202 50.6961 45.9277 50.6431C46.3351 50.59 46.7491 50.6179 47.1458 50.725L59.2166 53.9583C60.0172 54.1727 60.6999 54.6964 61.1144 55.4141C61.529 56.1318 61.6414 56.9848 61.427 57.7854C61.2126 58.586 60.689 59.2687 59.9713 59.6832C59.2536 60.0978 58.4006 60.2102 57.5999 59.9958L45.5249 56.7583C44.7252 56.5435 44.0433 56.02 43.6293 55.3028C43.2152 54.5856 43.1028 53.7334 43.3166 52.9333H43.3124Z" fill="url(#paint0_linear_267_62)"/>
<defs>
<linearGradient id="paint0_linear_267_62" x1="5.70874" y1="49.9958" x2="93.5567" y2="49.9958" gradientUnits="userSpaceOnUse">
<stop stop-color="#38B6FF"/>
<stop offset="1" stop-color="#0088D7"/>
</linearGradient>
</defs>
</svg>
